<svg xmlns="http://www.w3.org/2000/svg" xmlns:xlink="http://www.w3.org/1999/xlink" width="1920" zoomAndPan="magnify" viewBox="0 0 1440 809.999993" height="1080" preserveAspectRatio="xMidYMid meet" version="1.0"><defs><g/><clipPath id="id1"><path d="M 670 329.3125 L 770 329.3125 L 770 426.679688 L 670 426.679688 Z M 670 329.3125 " clip-rule="nonzero"/></clipPath></defs><g fill="rgb(100%, 54.899597%, 19.60907%)" fill-opacity="1"><g transform="translate(636.187564, 457.139195)"><g><path d="M 5.03125 -5.03125 C 5.414062 -5.03125 5.691406 -5.160156 5.859375 -5.421875 C 6.023438 -5.679688 6.109375 -6.125 6.109375 -6.75 L 6.109375 -16.359375 C 6.109375 -17.210938 6.40625 -17.9375 7 -18.53125 C 7.601562 -19.132812 8.3125 -19.4375 9.125 -19.4375 C 9.96875 -19.4375 10.679688 -19.128906 11.265625 -18.515625 C 11.847656 -17.910156 12.140625 -17.171875 12.140625 -16.296875 L 12.140625 -6.75 C 12.140625 -5.300781 11.875 -4.054688 11.34375 -3.015625 C 10.820312 -1.972656 10.078125 -1.171875 9.109375 -0.609375 C 8.140625 -0.046875 6.988281 0.234375 5.65625 0.234375 C 5.1875 0.234375 4.816406 0.21875 4.546875 0.1875 C 4.035156 0.113281 3.664062 0.0507812 3.4375 0 C 2.257812 -0.28125 1.363281 -0.722656 0.75 -1.328125 C 0.144531 -1.941406 -0.15625 -2.601562 -0.15625 -3.3125 C -0.15625 -3.71875 -0.0507812 -4.113281 0.15625 -4.5 C 0.625 -5.300781 1.320312 -5.710938 2.25 -5.734375 C 2.613281 -5.734375 2.992188 -5.671875 3.390625 -5.546875 C 3.472656 -5.535156 3.539062 -5.519531 3.59375 -5.5 C 3.65625 -5.476562 3.710938 -5.460938 3.765625 -5.453125 L 4.15625 -5.296875 L 4.515625 -5.125 C 4.597656 -5.101562 4.769531 -5.070312 5.03125 -5.03125 Z M 5.03125 -5.03125 "/></g></g></g><g fill="rgb(100%, 54.899597%, 19.60907%)" fill-opacity="1"><g transform="translate(652.186677, 457.139195)"><g><path d="M 1.4375 0.03125 C 0.84375 -0.226562 0.382812 -0.585938 0.0625 -1.046875 C -0.257812 -1.515625 -0.421875 -2.046875 -0.421875 -2.640625 C -0.421875 -3.085938 -0.304688 -3.632812 -0.078125 -4.28125 L 4.46875 -16.03125 C 4.894531 -17.101562 5.507812 -17.929688 6.3125 -18.515625 C 7.113281 -19.097656 8.03125 -19.390625 9.0625 -19.390625 C 10.101562 -19.390625 11.023438 -19.097656 11.828125 -18.515625 C 12.640625 -17.929688 13.253906 -17.101562 13.671875 -16.03125 L 18.21875 -4.28125 C 18.457031 -3.601562 18.578125 -3.054688 18.578125 -2.640625 C 18.578125 -2.046875 18.414062 -1.515625 18.09375 -1.046875 C 17.769531 -0.585938 17.3125 -0.226562 16.71875 0.03125 C 16.300781 0.207031 15.878906 0.296875 15.453125 0.296875 C 14.835938 0.296875 14.269531 0.101562 13.75 -0.28125 C 13.226562 -0.664062 12.84375 -1.207031 12.59375 -1.90625 L 12.296875 -2.78125 L 5.875 -2.78125 L 5.546875 -1.90625 C 5.316406 -1.226562 4.941406 -0.691406 4.421875 -0.296875 C 3.898438 0.0976562 3.328125 0.296875 2.703125 0.296875 C 2.265625 0.296875 1.84375 0.207031 1.4375 0.03125 Z M 7.640625 -8.09375 L 10.5 -8.09375 L 9.0625 -13.234375 Z M 7.640625 -8.09375 "/></g></g></g><g fill="rgb(100%, 54.899597%, 19.60907%)" fill-opacity="1"><g transform="translate(673.429687, 457.139195)"><g><path d="M 2.09375 -0.90625 C 1.414062 -1.320312 0.953125 -1.726562 0.703125 -2.125 C 0.460938 -2.53125 0.34375 -3.050781 0.34375 -3.6875 C 0.375 -4.257812 0.519531 -4.75 0.78125 -5.15625 C 1.28125 -5.894531 1.910156 -6.265625 2.671875 -6.265625 C 2.984375 -6.265625 3.296875 -6.226562 3.609375 -6.15625 L 4.765625 -5.84375 L 5.828125 -5.578125 L 6.59375 -5.40625 L 6.875 -5.328125 C 7.0625 -5.296875 7.210938 -5.269531 7.328125 -5.25 C 7.679688 -5.1875 7.988281 -5.15625 8.25 -5.15625 C 8.53125 -5.15625 8.773438 -5.191406 8.984375 -5.265625 C 9.296875 -5.359375 9.507812 -5.453125 9.625 -5.546875 C 9.789062 -5.679688 9.875 -5.832031 9.875 -6 C 9.875 -6.195312 9.78125 -6.347656 9.59375 -6.453125 C 9.5625 -6.472656 9.492188 -6.5 9.390625 -6.53125 L 8.890625 -6.71875 L 8.546875 -6.8125 L 7.140625 -7.171875 L 6.875 -7.21875 L 5.125 -7.71875 C 4.164062 -7.976562 3.359375 -8.316406 2.703125 -8.734375 C 1.984375 -9.191406 1.425781 -9.785156 1.03125 -10.515625 C 0.644531 -11.253906 0.453125 -12.054688 0.453125 -12.921875 C 0.453125 -13.617188 0.582031 -14.3125 0.84375 -15 C 1.101562 -15.695312 1.492188 -16.320312 2.015625 -16.875 C 2.585938 -17.519531 3.320312 -18.054688 4.21875 -18.484375 C 5.113281 -18.910156 6.128906 -19.195312 7.265625 -19.34375 C 7.710938 -19.382812 8.175781 -19.40625 8.65625 -19.40625 C 9.632812 -19.40625 10.578125 -19.28125 11.484375 -19.03125 C 12.484375 -18.726562 13.222656 -18.390625 13.703125 -18.015625 C 14.191406 -17.640625 14.519531 -17.171875 14.6875 -16.609375 C 14.769531 -16.265625 14.8125 -15.957031 14.8125 -15.6875 C 14.8125 -15.132812 14.671875 -14.660156 14.390625 -14.265625 C 14.128906 -13.878906 13.832031 -13.597656 13.5 -13.421875 C 13.164062 -13.242188 12.773438 -13.15625 12.328125 -13.15625 C 11.835938 -13.15625 11.289062 -13.238281 10.6875 -13.40625 L 10.46875 -13.484375 L 9.71875 -13.734375 L 9.390625 -13.8125 L 8.65625 -13.984375 L 8.28125 -14.078125 L 8.015625 -14.125 C 7.960938 -14.132812 7.910156 -14.140625 7.859375 -14.140625 C 7.816406 -14.148438 7.753906 -14.15625 7.671875 -14.15625 C 7.179688 -14.15625 6.847656 -14.082031 6.671875 -13.9375 C 6.515625 -13.8125 6.4375 -13.660156 6.4375 -13.484375 C 6.4375 -13.367188 6.488281 -13.273438 6.59375 -13.203125 C 6.6875 -13.128906 6.828125 -13.066406 7.015625 -13.015625 L 7.515625 -12.875 L 7.703125 -12.828125 L 8.234375 -12.703125 L 9.109375 -12.484375 L 10.84375 -11.984375 C 11.757812 -11.722656 12.53125 -11.429688 13.15625 -11.109375 C 13.625 -10.867188 14.039062 -10.578125 14.40625 -10.234375 C 14.769531 -9.890625 15.078125 -9.503906 15.328125 -9.078125 C 15.585938 -8.660156 15.773438 -8.226562 15.890625 -7.78125 C 16.015625 -7.332031 16.078125 -6.863281 16.078125 -6.375 C 16.078125 -4.976562 15.582031 -3.691406 14.59375 -2.515625 C 13.082031 -0.679688 10.84375 0.234375 7.875 0.234375 C 7.65625 0.234375 7.28125 0.21875 6.75 0.1875 C 4.65625 0.0625 3.101562 -0.300781 2.09375 -0.90625 Z M 2.09375 -0.90625 "/></g></g></g><g fill="rgb(100%, 54.899597%, 19.60907%)" fill-opacity="1"><g transform="translate(692.877366, 457.139195)"><g><path d="M -0.203125 -16.609375 C -0.191406 -17.097656 -0.0703125 -17.539062 0.15625 -17.9375 C 0.394531 -18.34375 0.710938 -18.660156 1.109375 -18.890625 C 1.503906 -19.117188 1.9375 -19.234375 2.40625 -19.234375 L 12.75 -19.234375 C 13.238281 -19.234375 13.679688 -19.109375 14.078125 -18.859375 C 14.472656 -18.617188 14.785156 -18.289062 15.015625 -17.875 C 15.253906 -17.457031 15.375 -17 15.375 -16.5 C 15.34375 -15.769531 15.066406 -15.148438 14.546875 -14.640625 C 14.035156 -14.140625 13.4375 -13.890625 12.75 -13.890625 L 10.53125 -13.890625 L 10.53125 -2.796875 C 10.53125 -2.242188 10.394531 -1.738281 10.125 -1.28125 C 9.851562 -0.832031 9.488281 -0.472656 9.03125 -0.203125 C 8.582031 0.0664062 8.078125 0.203125 7.515625 0.203125 C 6.953125 0.203125 6.4375 0.0664062 5.96875 -0.203125 C 5.507812 -0.472656 5.144531 -0.84375 4.875 -1.3125 C 4.601562 -1.789062 4.46875 -2.304688 4.46875 -2.859375 L 4.46875 -13.9375 L 2.375 -13.9375 C 1.65625 -13.9375 1.046875 -14.195312 0.546875 -14.71875 C 0.046875 -15.25 -0.203125 -15.878906 -0.203125 -16.609375 Z M -0.203125 -16.609375 "/></g></g></g><g fill="rgb(100%, 54.899597%, 19.60907%)" fill-opacity="1"><g transform="translate(711.136777, 457.139195)"><g><path d="M 1.671875 -0.65625 C 1.066406 -1.257812 0.765625 -2 0.765625 -2.875 L 0.765625 -16.359375 C 0.765625 -17.210938 1.0625 -17.929688 1.65625 -18.515625 C 2.257812 -19.109375 2.988281 -19.40625 3.84375 -19.40625 C 4.382812 -19.40625 4.890625 -19.269531 5.359375 -19 C 5.828125 -18.726562 6.195312 -18.351562 6.46875 -17.875 C 6.738281 -17.40625 6.875 -16.890625 6.875 -16.328125 L 6.875 -2.828125 C 6.875 -2.421875 6.796875 -2.023438 6.640625 -1.640625 C 6.492188 -1.265625 6.273438 -0.929688 5.984375 -0.640625 C 5.378906 -0.0546875 4.664062 0.234375 3.84375 0.234375 C 2.957031 0.234375 2.234375 -0.0625 1.671875 -0.65625 Z M 1.671875 -0.65625 "/></g></g></g><g fill="rgb(100%, 54.899597%, 19.60907%)" fill-opacity="1"><g transform="translate(721.879075, 457.139195)"><g><path d="M 1.640625 -0.734375 C 1.054688 -1.367188 0.765625 -2.109375 0.765625 -2.953125 L 0.765625 -15.875 C 0.765625 -16.894531 1.046875 -17.707031 1.609375 -18.3125 C 2.179688 -18.925781 2.914062 -19.234375 3.8125 -19.234375 L 9.5 -19.234375 C 10.914062 -19.234375 12.175781 -18.925781 13.28125 -18.3125 C 14.394531 -17.707031 15.257812 -16.878906 15.875 -15.828125 C 16.488281 -14.785156 16.796875 -13.625 16.796875 -12.34375 C 16.753906 -10.507812 16.160156 -8.988281 15.015625 -7.78125 C 13.878906 -6.582031 12.347656 -5.863281 10.421875 -5.625 C 10.023438 -5.570312 9.640625 -5.546875 9.265625 -5.546875 L 6.875 -5.546875 L 6.875 -2.90625 C 6.875 -1.988281 6.566406 -1.238281 5.953125 -0.65625 C 5.378906 -0.0820312 4.675781 0.203125 3.84375 0.203125 C 2.976562 0.203125 2.242188 -0.109375 1.640625 -0.734375 Z M 6.875 -10.90625 L 9.3125 -10.90625 C 9.71875 -10.90625 10.0625 -11.046875 10.34375 -11.328125 C 10.644531 -11.628906 10.796875 -11.96875 10.796875 -12.34375 C 10.796875 -12.726562 10.65625 -13.066406 10.375 -13.359375 C 10.0625 -13.640625 9.707031 -13.78125 9.3125 -13.78125 L 6.875 -13.78125 Z M 6.875 -10.90625 "/></g></g></g><g fill="rgb(100%, 54.899597%, 19.60907%)" fill-opacity="1"><g transform="translate(741.85632, 457.139195)"><g><path d="M 14.34375 -18.8125 C 15.332031 -18.4375 16.238281 -17.921875 17.0625 -17.265625 C 17.882812 -16.609375 18.566406 -15.867188 19.109375 -15.046875 C 19.660156 -14.234375 20.078125 -13.359375 20.359375 -12.421875 C 20.648438 -11.492188 20.796875 -10.546875 20.796875 -9.578125 C 20.796875 -7.617188 20.234375 -5.863281 19.109375 -4.3125 L 20.90625 -2.5 C 21.394531 -2 21.640625 -1.378906 21.640625 -0.640625 C 21.640625 0.078125 21.394531 0.695312 20.90625 1.21875 C 20.375 1.820312 19.71875 2.125 18.9375 2.125 C 18.257812 2.125 17.671875 1.875 17.171875 1.375 L 15.125 -0.6875 L 14.921875 -0.609375 L 14.34375 -0.40625 C 12.96875 0.0390625 11.6875 0.265625 10.5 0.265625 C 9.332031 0.265625 8.160156 0.0351562 6.984375 -0.421875 C 6.023438 -0.785156 5.144531 -1.285156 4.34375 -1.921875 C 3.550781 -2.554688 2.867188 -3.289062 2.296875 -4.125 C 1.117188 -5.851562 0.53125 -7.6875 0.53125 -9.625 C 0.53125 -10.550781 0.679688 -11.488281 0.984375 -12.4375 C 1.285156 -13.382812 1.722656 -14.28125 2.296875 -15.125 C 2.742188 -15.78125 3.28125 -16.382812 3.90625 -16.9375 C 4.53125 -17.488281 5.207031 -17.953125 5.9375 -18.328125 C 6.664062 -18.710938 7.425781 -19 8.21875 -19.1875 C 9.019531 -19.382812 9.820312 -19.484375 10.625 -19.484375 C 11.164062 -19.484375 11.804688 -19.425781 12.546875 -19.3125 C 13.210938 -19.195312 13.8125 -19.03125 14.34375 -18.8125 Z M 6.59375 -9.625 C 6.59375 -8.5 6.898438 -7.523438 7.515625 -6.703125 C 8.140625 -5.890625 8.925781 -5.378906 9.875 -5.171875 C 10.15625 -5.128906 10.425781 -5.109375 10.6875 -5.109375 C 11.394531 -5.109375 12.050781 -5.289062 12.65625 -5.65625 C 13.269531 -6.03125 13.769531 -6.566406 14.15625 -7.265625 C 14.539062 -7.953125 14.734375 -8.738281 14.734375 -9.625 C 14.734375 -10.46875 14.550781 -11.238281 14.1875 -11.9375 C 13.820312 -12.632812 13.328125 -13.171875 12.703125 -13.546875 C 12.078125 -13.929688 11.394531 -14.125 10.65625 -14.125 C 9.90625 -14.125 9.21875 -13.929688 8.59375 -13.546875 C 7.976562 -13.171875 7.488281 -12.632812 7.125 -11.9375 C 6.769531 -11.238281 6.59375 -10.46875 6.59375 -9.625 Z M 6.59375 -9.625 "/></g></g></g><g fill="rgb(100%, 54.899597%, 19.60907%)" fill-opacity="1"><g transform="translate(766.328333, 457.139195)"><g><path d="M 8.484375 0.078125 C 7.210938 -0.128906 6.09375 -0.472656 5.125 -0.953125 C 4.15625 -1.441406 3.347656 -2.054688 2.703125 -2.796875 C 2.066406 -3.535156 1.582031 -4.398438 1.25 -5.390625 C 0.925781 -6.378906 0.765625 -7.457031 0.765625 -8.625 L 0.765625 -16.328125 C 0.765625 -17.191406 1.054688 -17.929688 1.640625 -18.546875 C 2.253906 -19.160156 2.988281 -19.46875 3.84375 -19.46875 C 4.675781 -19.46875 5.378906 -19.175781 5.953125 -18.59375 C 6.566406 -17.988281 6.875 -17.25 6.875 -16.375 L 6.875 -8.4375 C 6.875 -7.832031 6.972656 -7.296875 7.171875 -6.828125 C 7.378906 -6.367188 7.679688 -5.988281 8.078125 -5.6875 C 8.472656 -5.394531 8.953125 -5.203125 9.515625 -5.109375 C 9.804688 -5.066406 10.023438 -5.046875 10.171875 -5.046875 C 10.316406 -5.046875 10.535156 -5.066406 10.828125 -5.109375 C 11.390625 -5.203125 11.863281 -5.394531 12.25 -5.6875 C 12.644531 -5.988281 12.941406 -6.367188 13.140625 -6.828125 C 13.347656 -7.296875 13.453125 -7.832031 13.453125 -8.4375 L 13.453125 -16.375 C 13.453125 -17.238281 13.765625 -17.976562 14.390625 -18.59375 C 14.960938 -19.175781 15.664062 -19.46875 16.5 -19.46875 C 17.363281 -19.46875 18.085938 -19.160156 18.671875 -18.546875 C 18.953125 -18.273438 19.171875 -17.941406 19.328125 -17.546875 C 19.492188 -17.148438 19.578125 -16.742188 19.578125 -16.328125 L 19.578125 -8.625 C 19.578125 -7.4375 19.410156 -6.351562 19.078125 -5.375 C 18.753906 -4.394531 18.269531 -3.535156 17.625 -2.796875 C 16.976562 -2.054688 16.171875 -1.441406 15.203125 -0.953125 C 14.234375 -0.472656 13.101562 -0.128906 11.8125 0.078125 C 11.375 0.160156 10.820312 0.203125 10.15625 0.203125 C 9.507812 0.203125 8.953125 0.160156 8.484375 0.078125 Z M 8.484375 0.078125 "/></g></g></g><g fill="rgb(100%, 54.899597%, 19.60907%)" fill-opacity="1"><g transform="translate(789.767067, 457.139195)"><g><path d="M 1 -1.984375 C 0.84375 -2.367188 0.765625 -2.757812 0.765625 -3.15625 L 0.765625 -16.125 C 0.765625 -16.707031 0.894531 -17.234375 1.15625 -17.703125 C 1.425781 -18.179688 1.789062 -18.554688 2.25 -18.828125 C 2.71875 -19.097656 3.25 -19.234375 3.84375 -19.234375 L 11.109375 -19.234375 C 11.546875 -19.234375 11.960938 -19.113281 12.359375 -18.875 C 12.765625 -18.632812 13.082031 -18.3125 13.3125 -17.90625 C 13.550781 -17.507812 13.671875 -17.0625 13.671875 -16.5625 C 13.671875 -16.070312 13.550781 -15.617188 13.3125 -15.203125 C 13.082031 -14.785156 12.765625 -14.457031 12.359375 -14.21875 C 11.960938 -13.976562 11.53125 -13.859375 11.0625 -13.859375 L 6.875 -13.859375 L 6.875 -12.25 L 10.328125 -12.25 C 10.691406 -12.25 11.050781 -12.171875 11.40625 -12.015625 C 11.769531 -11.867188 12.082031 -11.664062 12.34375 -11.40625 C 12.601562 -11.175781 12.800781 -10.90625 12.9375 -10.59375 C 13.082031 -10.28125 13.15625 -9.957031 13.15625 -9.625 C 13.15625 -8.914062 12.878906 -8.300781 12.328125 -7.78125 C 11.734375 -7.269531 11.070312 -7.015625 10.34375 -7.015625 L 6.875 -7.015625 L 6.875 -5.34375 L 10.84375 -5.34375 C 11.632812 -5.34375 12.320312 -5.066406 12.90625 -4.515625 C 13.175781 -4.285156 13.378906 -4.003906 13.515625 -3.671875 C 13.660156 -3.335938 13.734375 -2.992188 13.734375 -2.640625 C 13.734375 -1.910156 13.460938 -1.289062 12.921875 -0.78125 C 12.328125 -0.257812 11.660156 0 10.921875 0 L 3.8125 0 C 3.238281 0 2.695312 -0.175781 2.1875 -0.53125 C 1.675781 -0.894531 1.28125 -1.378906 1 -1.984375 Z M 1 -1.984375 "/></g></g></g><g fill="rgb(65.098572%, 65.098572%, 65.098572%)" fill-opacity="1"><g transform="translate(664.622261, 477.439204)"><g><path d="M 7.28125 -4.65625 C 7.488281 -4.65625 7.660156 -4.582031 7.796875 -4.4375 C 7.941406 -4.289062 8.015625 -4.113281 8.015625 -3.90625 L 8.015625 -1.296875 C 8.015625 -1.003906 7.890625 -0.78125 7.640625 -0.625 C 6.828125 -0.125 5.941406 0.125 4.984375 0.125 C 4.171875 0.125 3.421875 -0.0703125 2.734375 -0.46875 C 2.046875 -0.875 1.5 -1.414062 1.09375 -2.09375 C 0.695312 -2.769531 0.5 -3.507812 0.5 -4.3125 C 0.5 -5.113281 0.695312 -5.851562 1.09375 -6.53125 C 1.5 -7.207031 2.046875 -7.742188 2.734375 -8.140625 C 3.421875 -8.535156 4.171875 -8.734375 4.984375 -8.734375 C 5.796875 -8.734375 6.503906 -8.570312 7.109375 -8.25 C 7.222656 -8.1875 7.3125 -8.097656 7.375 -7.984375 C 7.4375 -7.878906 7.46875 -7.765625 7.46875 -7.640625 C 7.46875 -7.441406 7.398438 -7.265625 7.265625 -7.109375 C 7.128906 -6.953125 6.960938 -6.875 6.765625 -6.875 C 6.648438 -6.875 6.515625 -6.910156 6.359375 -6.984375 C 5.921875 -7.171875 5.460938 -7.265625 4.984375 -7.265625 C 4.460938 -7.265625 3.976562 -7.128906 3.53125 -6.859375 C 3.09375 -6.597656 2.742188 -6.238281 2.484375 -5.78125 C 2.222656 -5.332031 2.09375 -4.84375 2.09375 -4.3125 C 2.09375 -3.78125 2.222656 -3.285156 2.484375 -2.828125 C 2.742188 -2.378906 3.09375 -2.019531 3.53125 -1.75 C 3.976562 -1.488281 4.460938 -1.359375 4.984375 -1.359375 C 5.210938 -1.359375 5.457031 -1.378906 5.71875 -1.421875 C 5.988281 -1.460938 6.222656 -1.515625 6.421875 -1.578125 L 6.421875 -3.171875 L 5.25 -3.171875 C 5.039062 -3.171875 4.863281 -3.238281 4.71875 -3.375 C 4.570312 -3.519531 4.5 -3.703125 4.5 -3.921875 C 4.5 -4.128906 4.570312 -4.300781 4.71875 -4.4375 C 4.863281 -4.582031 5.039062 -4.65625 5.25 -4.65625 Z M 7.28125 -4.65625 "/></g></g></g><g fill="rgb(65.098572%, 65.098572%, 65.098572%)" fill-opacity="1"><g transform="translate(675.651535, 477.439204)"><g><path d="M 5.796875 -1.421875 C 6.015625 -1.421875 6.191406 -1.347656 6.328125 -1.203125 C 6.472656 -1.054688 6.546875 -0.890625 6.546875 -0.703125 C 6.546875 -0.492188 6.472656 -0.320312 6.328125 -0.1875 C 6.191406 -0.0625 6.015625 0 5.796875 0 L 1.671875 0 C 1.460938 0 1.285156 -0.0703125 1.140625 -0.21875 C 0.992188 -0.363281 0.921875 -0.539062 0.921875 -0.75 L 0.921875 -7.875 C 0.921875 -8.082031 0.992188 -8.257812 1.140625 -8.40625 C 1.285156 -8.550781 1.460938 -8.625 1.671875 -8.625 L 5.796875 -8.625 C 6.015625 -8.625 6.191406 -8.554688 6.328125 -8.421875 C 6.472656 -8.285156 6.546875 -8.109375 6.546875 -7.890625 C 6.546875 -7.679688 6.472656 -7.515625 6.328125 -7.390625 C 6.191406 -7.265625 6.015625 -7.203125 5.796875 -7.203125 L 2.46875 -7.203125 L 2.46875 -5.109375 L 5.25 -5.109375 C 5.457031 -5.109375 5.632812 -5.039062 5.78125 -4.90625 C 5.925781 -4.769531 6 -4.597656 6 -4.390625 C 6 -4.179688 5.925781 -4.007812 5.78125 -3.875 C 5.644531 -3.75 5.46875 -3.6875 5.25 -3.6875 L 2.46875 -3.6875 L 2.46875 -1.421875 Z M 5.796875 -1.421875 "/></g></g></g><g fill="rgb(65.098572%, 65.098572%, 65.098572%)" fill-opacity="1"><g transform="translate(685.154755, 477.439204)"><g><path d="M 6.59375 -8.625 C 6.8125 -8.625 6.988281 -8.554688 7.125 -8.421875 C 7.269531 -8.285156 7.34375 -8.113281 7.34375 -7.90625 C 7.34375 -7.6875 7.269531 -7.515625 7.125 -7.390625 C 6.988281 -7.265625 6.8125 -7.203125 6.59375 -7.203125 L 4.65625 -7.203125 L 4.65625 -0.75 C 4.65625 -0.539062 4.578125 -0.363281 4.421875 -0.21875 C 4.265625 -0.0703125 4.070312 0 3.84375 0 C 3.613281 0 3.421875 -0.0703125 3.265625 -0.21875 C 3.117188 -0.363281 3.046875 -0.539062 3.046875 -0.75 L 3.046875 -7.203125 L 1.125 -7.203125 C 0.894531 -7.203125 0.710938 -7.265625 0.578125 -7.390625 C 0.441406 -7.523438 0.375 -7.703125 0.375 -7.921875 C 0.375 -8.117188 0.441406 -8.285156 0.578125 -8.421875 C 0.722656 -8.554688 0.90625 -8.625 1.125 -8.625 Z M 6.59375 -8.625 "/></g></g></g><g fill="rgb(65.098572%, 65.098572%, 65.098572%)" fill-opacity="1"><g transform="translate(695.322546, 477.439204)"><g/></g></g><g fill="rgb(65.098572%, 65.098572%, 65.098572%)" fill-opacity="1"><g transform="translate(701.232166, 477.439204)"><g><path d="M 2.46875 -0.75 C 2.46875 -0.539062 2.390625 -0.363281 2.234375 -0.21875 C 2.078125 -0.0703125 1.894531 0 1.6875 0 C 1.46875 0 1.285156 -0.0703125 1.140625 -0.21875 C 0.992188 -0.363281 0.921875 -0.539062 0.921875 -0.75 L 0.921875 -7.875 C 0.921875 -8.082031 0.992188 -8.257812 1.140625 -8.40625 C 1.285156 -8.550781 1.476562 -8.625 1.71875 -8.625 C 1.914062 -8.625 2.085938 -8.550781 2.234375 -8.40625 C 2.390625 -8.257812 2.46875 -8.082031 2.46875 -7.875 Z M 2.46875 -0.75 "/></g></g></g><g fill="rgb(65.098572%, 65.098572%, 65.098572%)" fill-opacity="1"><g transform="translate(707.080247, 477.439204)"><g><path d="M 6.59375 -8.625 C 6.8125 -8.625 6.988281 -8.554688 7.125 -8.421875 C 7.269531 -8.285156 7.34375 -8.113281 7.34375 -7.90625 C 7.34375 -7.6875 7.269531 -7.515625 7.125 -7.390625 C 6.988281 -7.265625 6.8125 -7.203125 6.59375 -7.203125 L 4.65625 -7.203125 L 4.65625 -0.75 C 4.65625 -0.539062 4.578125 -0.363281 4.421875 -0.21875 C 4.265625 -0.0703125 4.070312 0 3.84375 0 C 3.613281 0 3.421875 -0.0703125 3.265625 -0.21875 C 3.117188 -0.363281 3.046875 -0.539062 3.046875 -0.75 L 3.046875 -7.203125 L 1.125 -7.203125 C 0.894531 -7.203125 0.710938 -7.265625 0.578125 -7.390625 C 0.441406 -7.523438 0.375 -7.703125 0.375 -7.921875 C 0.375 -8.117188 0.441406 -8.285156 0.578125 -8.421875 C 0.722656 -8.554688 0.90625 -8.625 1.125 -8.625 Z M 6.59375 -8.625 "/></g></g></g><g fill="rgb(65.098572%, 65.098572%, 65.098572%)" fill-opacity="1"><g transform="translate(717.248036, 477.439204)"><g/></g></g><g fill="rgb(65.098572%, 65.098572%, 65.098572%)" fill-opacity="1"><g transform="translate(723.157654, 477.439204)"><g><path d="M 5.796875 -1.421875 C 6.015625 -1.421875 6.191406 -1.347656 6.328125 -1.203125 C 6.472656 -1.054688 6.546875 -0.890625 6.546875 -0.703125 C 6.546875 -0.492188 6.472656 -0.320312 6.328125 -0.1875 C 6.191406 -0.0625 6.015625 0 5.796875 0 L 1.671875 0 C 1.460938 0 1.285156 -0.0703125 1.140625 -0.21875 C 0.992188 -0.363281 0.921875 -0.539062 0.921875 -0.75 L 0.921875 -7.875 C 0.921875 -8.082031 0.992188 -8.257812 1.140625 -8.40625 C 1.285156 -8.550781 1.460938 -8.625 1.671875 -8.625 L 5.796875 -8.625 C 6.015625 -8.625 6.191406 -8.554688 6.328125 -8.421875 C 6.472656 -8.285156 6.546875 -8.109375 6.546875 -7.890625 C 6.546875 -7.679688 6.472656 -7.515625 6.328125 -7.390625 C 6.191406 -7.265625 6.015625 -7.203125 5.796875 -7.203125 L 2.46875 -7.203125 L 2.46875 -5.109375 L 5.25 -5.109375 C 5.457031 -5.109375 5.632812 -5.039062 5.78125 -4.90625 C 5.925781 -4.769531 6 -4.597656 6 -4.390625 C 6 -4.179688 5.925781 -4.007812 5.78125 -3.875 C 5.644531 -3.75 5.46875 -3.6875 5.25 -3.6875 L 2.46875 -3.6875 L 2.46875 -1.421875 Z M 5.796875 -1.421875 "/></g></g></g><g fill="rgb(65.098572%, 65.098572%, 65.098572%)" fill-opacity="1"><g transform="translate(732.660871, 477.439204)"><g><path d="M 7.6875 -0.953125 C 7.726562 -0.847656 7.75 -0.753906 7.75 -0.671875 C 7.75 -0.453125 7.675781 -0.273438 7.53125 -0.140625 C 7.394531 -0.00390625 7.238281 0.0625 7.0625 0.0625 C 6.90625 0.0625 6.765625 0.0195312 6.640625 -0.0625 C 6.523438 -0.15625 6.4375 -0.28125 6.375 -0.4375 L 5.734375 -1.9375 L 2.0625 -1.9375 L 1.421875 -0.4375 C 1.367188 -0.28125 1.28125 -0.15625 1.15625 -0.0625 C 1.039062 0.0195312 0.914062 0.0625 0.78125 0.0625 C 0.5625 0.0625 0.394531 0.00390625 0.28125 -0.109375 C 0.175781 -0.222656 0.125 -0.378906 0.125 -0.578125 C 0.125 -0.648438 0.132812 -0.726562 0.15625 -0.8125 L 3.21875 -8.171875 C 3.289062 -8.335938 3.390625 -8.460938 3.515625 -8.546875 C 3.648438 -8.640625 3.800781 -8.679688 3.96875 -8.671875 C 4.113281 -8.671875 4.25 -8.625 4.375 -8.53125 C 4.5 -8.445312 4.59375 -8.328125 4.65625 -8.171875 Z M 2.671875 -3.34375 L 5.140625 -3.34375 L 3.890625 -6.234375 Z M 2.671875 -3.34375 "/></g></g></g><g fill="rgb(65.098572%, 65.098572%, 65.098572%)" fill-opacity="1"><g transform="translate(742.988649, 477.439204)"><g><path d="M 3.6875 0.125 C 3.101562 0.125 2.578125 0.0507812 2.109375 -0.09375 C 1.648438 -0.238281 1.222656 -0.488281 0.828125 -0.84375 C 0.609375 -1.039062 0.5 -1.257812 0.5 -1.5 C 0.5 -1.6875 0.566406 -1.851562 0.703125 -2 C 0.835938 -2.144531 1.003906 -2.21875 1.203125 -2.21875 C 1.359375 -2.21875 1.5 -2.164062 1.625 -2.0625 C 1.957031 -1.789062 2.273438 -1.59375 2.578125 -1.46875 C 2.890625 -1.351562 3.257812 -1.296875 3.6875 -1.296875 C 4.15625 -1.296875 4.550781 -1.394531 4.875 -1.59375 C 5.207031 -1.800781 5.375 -2.054688 5.375 -2.359375 C 5.375 -2.734375 5.207031 -3.023438 4.875 -3.234375 C 4.550781 -3.441406 4.035156 -3.597656 3.328125 -3.703125 C 1.523438 -3.960938 0.625 -4.800781 0.625 -6.21875 C 0.625 -6.738281 0.757812 -7.1875 1.03125 -7.5625 C 1.300781 -7.945312 1.671875 -8.238281 2.140625 -8.4375 C 2.609375 -8.632812 3.128906 -8.734375 3.703125 -8.734375 C 4.222656 -8.734375 4.707031 -8.65625 5.15625 -8.5 C 5.613281 -8.351562 5.992188 -8.148438 6.296875 -7.890625 C 6.535156 -7.703125 6.65625 -7.484375 6.65625 -7.234375 C 6.65625 -7.046875 6.585938 -6.878906 6.453125 -6.734375 C 6.316406 -6.597656 6.148438 -6.53125 5.953125 -6.53125 C 5.835938 -6.53125 5.726562 -6.566406 5.625 -6.640625 C 5.414062 -6.804688 5.117188 -6.960938 4.734375 -7.109375 C 4.347656 -7.253906 4.003906 -7.328125 3.703125 -7.328125 C 3.191406 -7.328125 2.789062 -7.226562 2.5 -7.03125 C 2.21875 -6.84375 2.078125 -6.59375 2.078125 -6.28125 C 2.078125 -5.925781 2.222656 -5.65625 2.515625 -5.46875 C 2.804688 -5.289062 3.265625 -5.144531 3.890625 -5.03125 C 4.597656 -4.90625 5.160156 -4.742188 5.578125 -4.546875 C 6.003906 -4.359375 6.320312 -4.097656 6.53125 -3.765625 C 6.75 -3.441406 6.859375 -3.003906 6.859375 -2.453125 C 6.859375 -1.929688 6.710938 -1.472656 6.421875 -1.078125 C 6.128906 -0.691406 5.738281 -0.394531 5.25 -0.1875 C 4.769531 0.0195312 4.25 0.125 3.6875 0.125 Z M 3.6875 0.125 "/></g></g></g><g fill="rgb(65.098572%, 65.098572%, 65.098572%)" fill-opacity="1"><g transform="translate(752.799541, 477.439204)"><g><path d="M 2.46875 -0.75 C 2.46875 -0.539062 2.390625 -0.363281 2.234375 -0.21875 C 2.078125 -0.0703125 1.894531 0 1.6875 0 C 1.46875 0 1.285156 -0.0703125 1.140625 -0.21875 C 0.992188 -0.363281 0.921875 -0.539062 0.921875 -0.75 L 0.921875 -7.875 C 0.921875 -8.082031 0.992188 -8.257812 1.140625 -8.40625 C 1.285156 -8.550781 1.476562 -8.625 1.71875 -8.625 C 1.914062 -8.625 2.085938 -8.550781 2.234375 -8.40625 C 2.390625 -8.257812 2.46875 -8.082031 2.46875 -7.875 Z M 2.46875 -0.75 "/></g></g></g><g fill="rgb(65.098572%, 65.098572%, 65.098572%)" fill-opacity="1"><g transform="translate(758.647619, 477.439204)"><g><path d="M 5.671875 -1.4375 C 5.890625 -1.4375 6.066406 -1.367188 6.203125 -1.234375 C 6.347656 -1.097656 6.421875 -0.925781 6.421875 -0.71875 C 6.421875 -0.507812 6.347656 -0.335938 6.203125 -0.203125 C 6.066406 -0.0664062 5.890625 0 5.671875 0 L 1.671875 0 C 1.460938 0 1.285156 -0.0703125 1.140625 -0.21875 C 0.992188 -0.363281 0.921875 -0.539062 0.921875 -0.75 L 0.921875 -7.875 C 0.921875 -8.082031 0.992188 -8.257812 1.140625 -8.40625 C 1.285156 -8.550781 1.476562 -8.625 1.71875 -8.625 C 1.914062 -8.625 2.085938 -8.550781 2.234375 -8.40625 C 2.390625 -8.257812 2.46875 -8.082031 2.46875 -7.875 L 2.46875 -1.4375 Z M 5.671875 -1.4375 "/></g></g></g><g fill="rgb(65.098572%, 65.098572%, 65.098572%)" fill-opacity="1"><g transform="translate(768.027769, 477.439204)"><g><path d="M 7.15625 -7.890625 C 7.15625 -7.722656 7.109375 -7.570312 7.015625 -7.4375 L 4.4375 -3.75 L 4.4375 -0.75 C 4.4375 -0.539062 4.367188 -0.363281 4.234375 -0.21875 C 4.097656 -0.0703125 3.929688 0 3.734375 0 C 3.523438 0 3.347656 -0.0703125 3.203125 -0.21875 C 3.054688 -0.363281 2.984375 -0.539062 2.984375 -0.75 L 2.984375 -3.921875 L 0.4375 -7.328125 C 0.28125 -7.523438 0.203125 -7.71875 0.203125 -7.90625 C 0.203125 -8.113281 0.285156 -8.289062 0.453125 -8.4375 C 0.628906 -8.582031 0.8125 -8.65625 1 -8.65625 C 1.226562 -8.65625 1.425781 -8.539062 1.59375 -8.3125 L 3.765625 -5.3125 L 5.796875 -8.28125 C 5.972656 -8.53125 6.179688 -8.65625 6.421875 -8.65625 C 6.609375 -8.65625 6.773438 -8.582031 6.921875 -8.4375 C 7.078125 -8.289062 7.15625 -8.109375 7.15625 -7.890625 Z M 7.15625 -7.890625 "/></g></g></g><g clip-path="url(#id1)"><path fill="rgb(2.349854%, 6.669617%, 23.529053%)" d="M 671.367188 359.03125 L 676.441406 379.421875 C 676.648438 380.246094 676.917969 381.042969 677.257812 381.816406 C 677.59375 382.59375 677.992188 383.335938 678.453125 384.046875 C 678.910156 384.753906 679.425781 385.421875 679.996094 386.042969 C 680.566406 386.667969 681.183594 387.238281 681.847656 387.761719 C 682.511719 388.28125 683.214844 388.742188 683.957031 389.144531 C 684.699219 389.550781 685.46875 389.886719 686.265625 390.164062 C 687.0625 390.4375 687.875 390.644531 688.707031 390.785156 C 689.539062 390.925781 690.375 390.996094 691.21875 390.996094 L 741.738281 390.996094 C 742.550781 390.996094 743.363281 390.933594 744.167969 390.804688 C 744.972656 390.675781 745.761719 390.480469 746.539062 390.226562 C 747.3125 389.96875 748.0625 389.652344 748.785156 389.277344 C 749.507812 388.898438 750.199219 388.464844 750.851562 387.976562 C 751.507812 387.488281 752.117188 386.953125 752.6875 386.363281 C 753.253906 385.777344 753.773438 385.148438 754.242188 384.480469 C 754.710938 383.808594 755.121094 383.105469 755.476562 382.367188 C 755.832031 381.632812 756.125 380.871094 756.359375 380.085938 L 769.613281 336.398438 C 769.707031 336.0625 769.773438 335.722656 769.800781 335.375 C 769.832031 335.027344 769.828125 334.683594 769.789062 334.335938 C 769.75 333.988281 769.679688 333.648438 769.574219 333.316406 C 769.46875 332.984375 769.332031 332.667969 769.164062 332.359375 C 769 332.054688 768.804688 331.769531 768.578125 331.503906 C 768.355469 331.238281 768.109375 330.996094 767.835938 330.777344 C 767.566406 330.558594 767.277344 330.371094 766.96875 330.210938 C 766.660156 330.046875 766.339844 329.921875 766.007812 329.824219 C 765.671875 329.726562 765.332031 329.664062 764.988281 329.632812 C 764.640625 329.601562 764.296875 329.605469 763.953125 329.644531 C 763.605469 329.683594 763.269531 329.753906 762.9375 329.859375 C 762.605469 329.964844 762.289062 330.101562 761.984375 330.269531 C 761.679688 330.4375 761.394531 330.636719 761.128906 330.859375 C 760.863281 331.082031 760.625 331.332031 760.40625 331.605469 C 760.191406 331.875 760 332.167969 759.84375 332.476562 C 759.683594 332.785156 759.554688 333.109375 759.457031 333.441406 L 746.613281 377.179688 C 746.449219 377.722656 746.203125 378.222656 745.875 378.683594 C 745.542969 379.140625 745.148438 379.535156 744.691406 379.863281 C 744.230469 380.191406 743.730469 380.433594 743.191406 380.59375 C 742.648438 380.757812 742.097656 380.824219 741.535156 380.800781 L 690.761719 380.800781 C 690.179688 380.816406 689.613281 380.738281 689.0625 380.558594 C 688.511719 380.378906 688.003906 380.117188 687.542969 379.761719 C 687.078125 379.410156 686.6875 378.992188 686.371094 378.503906 C 686.050781 378.015625 685.824219 377.492188 685.683594 376.925781 L 680.605469 356.535156 C 680.511719 356.152344 680.464844 355.765625 680.457031 355.371094 C 680.453125 354.980469 680.492188 354.589844 680.578125 354.207031 C 680.664062 353.824219 680.789062 353.453125 680.960938 353.101562 C 681.128906 352.746094 681.335938 352.414062 681.582031 352.109375 C 681.828125 351.804688 682.105469 351.527344 682.414062 351.289062 C 682.722656 351.046875 683.054688 350.84375 683.410156 350.679688 C 683.769531 350.515625 684.136719 350.394531 684.519531 350.3125 C 684.90625 350.234375 685.292969 350.203125 685.683594 350.214844 L 739.148438 350.214844 C 739.480469 350.214844 739.8125 350.179688 740.136719 350.117188 C 740.464844 350.050781 740.78125 349.953125 741.089844 349.824219 C 741.398438 349.695312 741.691406 349.539062 741.96875 349.355469 C 742.246094 349.167969 742.5 348.957031 742.738281 348.71875 C 742.972656 348.484375 743.183594 348.226562 743.367188 347.949219 C 743.550781 347.667969 743.707031 347.375 743.835938 347.066406 C 743.964844 346.757812 744.058594 346.4375 744.125 346.109375 C 744.191406 345.78125 744.222656 345.449219 744.222656 345.117188 C 744.222656 344.78125 744.191406 344.449219 744.125 344.121094 C 744.058594 343.792969 743.964844 343.476562 743.835938 343.164062 C 743.707031 342.855469 743.550781 342.5625 743.367188 342.285156 C 743.183594 342.007812 742.972656 341.75 742.738281 341.511719 C 742.5 341.277344 742.246094 341.0625 741.96875 340.878906 C 741.691406 340.691406 741.398438 340.535156 741.089844 340.40625 C 740.78125 340.277344 740.464844 340.183594 740.136719 340.117188 C 739.8125 340.050781 739.480469 340.019531 739.148438 340.019531 L 686.140625 340.019531 C 685.5625 340.019531 684.988281 340.050781 684.414062 340.117188 C 683.84375 340.183594 683.273438 340.28125 682.710938 340.410156 C 682.148438 340.542969 681.597656 340.703125 681.050781 340.898438 C 680.507812 341.089844 679.976562 341.3125 679.457031 341.566406 C 678.941406 341.824219 678.4375 342.105469 677.949219 342.417969 C 677.464844 342.726562 676.996094 343.066406 676.546875 343.429688 C 676.101562 343.796875 675.671875 344.183594 675.269531 344.597656 C 674.867188 345.011719 674.484375 345.449219 674.128906 345.90625 C 673.777344 346.359375 673.449219 346.835938 673.148438 347.332031 C 672.84375 347.824219 672.574219 348.335938 672.328125 348.859375 C 672.085938 349.386719 671.875 349.921875 671.691406 350.472656 C 671.507812 351.023438 671.355469 351.582031 671.238281 352.148438 C 671.117188 352.714844 671.03125 353.285156 670.976562 353.863281 C 670.921875 354.441406 670.898438 355.019531 670.910156 355.597656 C 670.921875 356.175781 670.964844 356.753906 671.042969 357.328125 C 671.117188 357.902344 671.226562 358.46875 671.367188 359.03125 Z M 723.914062 411.386719 C 723.914062 412.390625 724.011719 413.382812 724.207031 414.371094 C 724.402344 415.355469 724.691406 416.3125 725.074219 417.238281 C 725.457031 418.167969 725.925781 419.046875 726.484375 419.882812 C 727.039062 420.71875 727.671875 421.488281 728.378906 422.199219 C 729.085938 422.910156 729.855469 423.542969 730.683594 424.101562 C 731.515625 424.660156 732.394531 425.128906 733.320312 425.515625 C 734.242188 425.898438 735.195312 426.1875 736.175781 426.386719 C 737.15625 426.582031 738.148438 426.679688 739.148438 426.679688 C 740.148438 426.679688 741.136719 426.582031 742.121094 426.386719 C 743.101562 426.1875 744.054688 425.898438 744.976562 425.515625 C 745.902344 425.128906 746.777344 424.660156 747.609375 424.101562 C 748.441406 423.542969 749.210938 422.910156 749.917969 422.199219 C 750.625 421.488281 751.257812 420.71875 751.8125 419.882812 C 752.367188 419.046875 752.835938 418.167969 753.21875 417.238281 C 753.601562 416.3125 753.890625 415.355469 754.085938 414.371094 C 754.28125 413.382812 754.378906 412.390625 754.378906 411.386719 C 754.378906 410.382812 754.28125 409.386719 754.085938 408.402344 C 753.890625 407.417969 753.601562 406.460938 753.21875 405.535156 C 752.835938 404.605469 752.367188 403.722656 751.8125 402.890625 C 751.257812 402.054688 750.625 401.28125 749.917969 400.570312 C 749.210938 399.863281 748.441406 399.226562 747.609375 398.671875 C 746.777344 398.113281 745.902344 397.640625 744.976562 397.257812 C 744.054688 396.871094 743.101562 396.582031 742.121094 396.386719 C 741.136719 396.191406 740.148438 396.09375 739.148438 396.09375 C 738.148438 396.09375 737.15625 396.191406 736.175781 396.386719 C 735.195312 396.582031 734.242188 396.871094 733.320312 397.257812 C 732.394531 397.640625 731.515625 398.113281 730.683594 398.671875 C 729.855469 399.226562 729.085938 399.863281 728.378906 400.570312 C 727.671875 401.28125 727.039062 402.054688 726.484375 402.890625 C 725.925781 403.722656 725.457031 404.605469 725.074219 405.535156 C 724.691406 406.460938 724.402344 407.417969 724.207031 408.402344 C 724.011719 409.386719 723.914062 410.382812 723.914062 411.386719 Z M 734.070312 411.386719 C 734.070312 411.050781 734.101562 410.71875 734.167969 410.390625 C 734.234375 410.0625 734.328125 409.746094 734.457031 409.433594 C 734.585938 409.125 734.742188 408.832031 734.925781 408.554688 C 735.113281 408.277344 735.320312 408.019531 735.558594 407.78125 C 735.792969 407.542969 736.050781 407.332031 736.328125 407.148438 C 736.605469 406.960938 736.898438 406.804688 737.203125 406.675781 C 737.511719 406.546875 737.832031 406.453125 738.15625 406.386719 C 738.484375 406.320312 738.816406 406.289062 739.148438 406.289062 C 739.480469 406.289062 739.8125 406.320312 740.136719 406.386719 C 740.464844 406.453125 740.78125 406.546875 741.089844 406.675781 C 741.398438 406.804688 741.691406 406.960938 741.96875 407.148438 C 742.246094 407.332031 742.503906 407.542969 742.738281 407.78125 C 742.972656 408.019531 743.183594 408.277344 743.371094 408.554688 C 743.554688 408.832031 743.710938 409.125 743.839844 409.433594 C 743.964844 409.746094 744.0625 410.0625 744.128906 410.390625 C 744.191406 410.71875 744.226562 411.050781 744.226562 411.386719 C 744.226562 411.722656 744.191406 412.050781 744.128906 412.378906 C 744.0625 412.707031 743.964844 413.027344 743.839844 413.335938 C 743.710938 413.644531 743.554688 413.941406 743.371094 414.21875 C 743.183594 414.496094 742.972656 414.753906 742.738281 414.992188 C 742.503906 415.226562 742.246094 415.4375 741.96875 415.625 C 741.691406 415.808594 741.398438 415.96875 741.089844 416.09375 C 740.78125 416.222656 740.464844 416.320312 740.136719 416.386719 C 739.8125 416.449219 739.480469 416.484375 739.148438 416.484375 C 738.816406 416.484375 738.484375 416.449219 738.15625 416.386719 C 737.832031 416.320312 737.511719 416.222656 737.203125 416.09375 C 736.898438 415.96875 736.605469 415.808594 736.328125 415.625 C 736.050781 415.4375 735.792969 415.226562 735.558594 414.992188 C 735.320312 414.753906 735.113281 414.496094 734.925781 414.21875 C 734.742188 413.941406 734.585938 413.644531 734.457031 413.335938 C 734.328125 413.027344 734.234375 412.707031 734.167969 412.378906 C 734.101562 412.050781 734.070312 411.722656 734.070312 411.386719 Z M 683.296875 411.386719 C 683.296875 412.390625 683.394531 413.382812 683.589844 414.371094 C 683.785156 415.355469 684.074219 416.3125 684.457031 417.238281 C 684.839844 418.167969 685.308594 419.046875 685.863281 419.882812 C 686.421875 420.71875 687.050781 421.488281 687.757812 422.199219 C 688.464844 422.910156 689.234375 423.542969 690.066406 424.101562 C 690.898438 424.660156 691.777344 425.128906 692.699219 425.515625 C 693.625 425.898438 694.578125 426.1875 695.558594 426.386719 C 696.539062 426.582031 697.53125 426.679688 698.53125 426.679688 C 699.53125 426.679688 700.519531 426.582031 701.5 426.386719 C 702.480469 426.1875 703.433594 425.898438 704.359375 425.515625 C 705.28125 425.128906 706.160156 424.660156 706.992188 424.101562 C 707.824219 423.542969 708.59375 422.910156 709.300781 422.199219 C 710.007812 421.488281 710.640625 420.71875 711.195312 419.882812 C 711.75 419.046875 712.21875 418.167969 712.601562 417.238281 C 712.984375 416.3125 713.273438 415.355469 713.46875 414.371094 C 713.664062 413.382812 713.761719 412.390625 713.761719 411.386719 C 713.761719 410.382812 713.664062 409.386719 713.46875 408.402344 C 713.273438 407.417969 712.984375 406.460938 712.601562 405.535156 C 712.21875 404.605469 711.75 403.722656 711.195312 402.890625 C 710.640625 402.054688 710.007812 401.28125 709.300781 400.570312 C 708.59375 399.863281 707.824219 399.226562 706.992188 398.671875 C 706.160156 398.113281 705.28125 397.640625 704.359375 397.257812 C 703.433594 396.871094 702.480469 396.582031 701.5 396.386719 C 700.519531 396.191406 699.53125 396.09375 698.53125 396.09375 C 697.53125 396.09375 696.539062 396.191406 695.558594 396.386719 C 694.578125 396.582031 693.625 396.871094 692.699219 397.257812 C 691.777344 397.640625 690.898438 398.113281 690.066406 398.671875 C 689.234375 399.226562 688.464844 399.863281 687.757812 400.570312 C 687.050781 401.28125 686.421875 402.054688 685.863281 402.890625 C 685.308594 403.722656 684.839844 404.605469 684.457031 405.535156 C 684.074219 406.460938 683.785156 407.417969 683.589844 408.402344 C 683.394531 409.386719 683.296875 410.382812 683.296875 411.386719 Z M 693.453125 411.386719 C 693.453125 411.050781 693.484375 410.71875 693.550781 410.390625 C 693.613281 410.0625 693.710938 409.746094 693.839844 409.433594 C 693.964844 409.125 694.121094 408.832031 694.308594 408.554688 C 694.492188 408.277344 694.703125 408.019531 694.9375 407.78125 C 695.175781 407.542969 695.429688 407.332031 695.707031 407.148438 C 695.984375 406.960938 696.277344 406.804688 696.585938 406.675781 C 696.894531 406.546875 697.210938 406.453125 697.539062 406.386719 C 697.867188 406.320312 698.195312 406.289062 698.53125 406.289062 C 698.863281 406.289062 699.191406 406.320312 699.519531 406.386719 C 699.847656 406.453125 700.164062 406.546875 700.472656 406.675781 C 700.78125 406.804688 701.074219 406.960938 701.351562 407.148438 C 701.628906 407.332031 701.882812 407.542969 702.121094 407.78125 C 702.355469 408.019531 702.566406 408.277344 702.75 408.554688 C 702.9375 408.832031 703.09375 409.125 703.21875 409.433594 C 703.347656 409.746094 703.445312 410.0625 703.507812 410.390625 C 703.574219 410.71875 703.605469 411.050781 703.605469 411.386719 C 703.605469 411.722656 703.574219 412.050781 703.507812 412.378906 C 703.445312 412.707031 703.347656 413.027344 703.21875 413.335938 C 703.09375 413.644531 702.9375 413.941406 702.75 414.21875 C 702.566406 414.496094 702.355469 414.753906 702.121094 414.992188 C 701.882812 415.226562 701.628906 415.4375 701.351562 415.625 C 701.074219 415.808594 700.78125 415.96875 700.472656 416.09375 C 700.164062 416.222656 699.847656 416.320312 699.519531 416.386719 C 699.191406 416.449219 698.863281 416.484375 698.53125 416.484375 C 698.195312 416.484375 697.867188 416.449219 697.539062 416.386719 C 697.210938 416.320312 696.894531 416.222656 696.585938 416.09375 C 696.277344 415.96875 695.984375 415.808594 695.707031 415.625 C 695.429688 415.4375 695.175781 415.226562 694.9375 414.992188 C 694.703125 414.753906 694.492188 414.496094 694.308594 414.21875 C 694.121094 413.941406 693.964844 413.644531 693.839844 413.335938 C 693.710938 413.027344 693.613281 412.707031 693.550781 412.378906 C 693.484375 412.050781 693.453125 411.722656 693.453125 411.386719 Z M 698.53125 370.605469 C 698.195312 370.605469 697.867188 370.570312 697.539062 370.507812 C 697.210938 370.441406 696.894531 370.34375 696.585938 370.214844 C 696.277344 370.089844 695.984375 369.929688 695.707031 369.746094 C 695.429688 369.558594 695.175781 369.347656 694.9375 369.113281 C 694.703125 368.875 694.492188 368.617188 694.308594 368.339844 C 694.121094 368.0625 693.964844 367.765625 693.839844 367.457031 C 693.710938 367.148438 693.613281 366.828125 693.550781 366.5 C 693.484375 366.171875 693.453125 365.839844 693.453125 365.507812 C 693.453125 365.171875 693.484375 364.839844 693.550781 364.511719 C 693.613281 364.183594 693.710938 363.863281 693.839844 363.554688 C 693.964844 363.246094 694.121094 362.953125 694.308594 362.675781 C 694.492188 362.394531 694.703125 362.140625 694.9375 361.902344 C 695.175781 361.664062 695.429688 361.453125 695.707031 361.269531 C 695.984375 361.082031 696.277344 360.925781 696.585938 360.796875 C 696.894531 360.667969 697.210938 360.574219 697.539062 360.507812 C 697.867188 360.441406 698.195312 360.410156 698.53125 360.410156 L 734.070312 360.410156 C 734.402344 360.410156 734.734375 360.441406 735.0625 360.507812 C 735.386719 360.574219 735.707031 360.667969 736.011719 360.796875 C 736.320312 360.925781 736.613281 361.082031 736.890625 361.269531 C 737.167969 361.453125 737.425781 361.664062 737.660156 361.902344 C 737.898438 362.140625 738.105469 362.394531 738.292969 362.675781 C 738.476562 362.953125 738.632812 363.246094 738.761719 363.554688 C 738.890625 363.863281 738.984375 364.183594 739.050781 364.511719 C 739.117188 364.839844 739.148438 365.171875 739.148438 365.507812 C 739.148438 365.839844 739.117188 366.171875 739.050781 366.5 C 738.984375 366.828125 738.890625 367.148438 738.761719 367.457031 C 738.632812 367.765625 738.476562 368.0625 738.292969 368.339844 C 738.105469 368.617188 737.898438 368.875 737.660156 369.113281 C 737.425781 369.347656 737.167969 369.558594 736.890625 369.746094 C 736.613281 369.929688 736.320312 370.089844 736.011719 370.214844 C 735.707031 370.34375 735.386719 370.441406 735.0625 370.507812 C 734.734375 370.570312 734.402344 370.605469 734.070312 370.605469 Z M 698.53125 370.605469 " fill-opacity="1" fill-rule="nonzero"/></g><path stroke-linecap="round" transform="matrix(-8.143328, -8.143328, 7.919415, -7.919415, 761.866432, 392.211593)" fill="none" stroke-linejoin="miter" d="M 0.500068 -0.000157529 L 2.04586 0.0000890959 " stroke="rgb(2.349854%, 6.669617%, 23.529053%)" stroke-width="1" stroke-opacity="1" stroke-miterlimit="4"/></svg>